# xmcd CD database file
#
# Track frame offsets:
#	150
#	27825
#	56736
#	64173
#	89031
#	114662
#	133127
#	151266
#	178513
#	197662
#
# Disc length: 3292 seconds
#
# Revision: 0
# Processed by: cddbd v1.5.2PL0 Copyright (c) Steve Scherf et al.
# Submitted via: CDex 1.70beta2
#
DISCID=8c0cda0a
DTITLE=Denis Guivarc'h - Exit
DYEAR=2007
DGENRE=Jazz
TTITLE0=Nefertiti
TTITLE1=Horloge parlante
TTITLE2=M.A.O.
TTITLE3=Geant vert
TTITLE4=Exit
TTITLE5=MMO
TTITLE6=All the things you are
TTITLE7=My steps
TTITLE8=Evalse
TTITLE9=1..2..3
EXTD=YEAR: 2007
EXTT0=
EXTT1=
EXTT2=
EXTT3=
EXTT4=
EXTT5=
EXTT6=
EXTT7=
EXTT8=
EXTT9=
PLAYORDER=
